# xmcd
#
# Track frame offsets: 
#        150
#        16171
#        37412
#        54054
#        81855
#        97660
#        116444
#        132049
#        150246
#        166747
#        182027
#        199716
#
# Disc length: 2878 seconds
#
# Revision: 1
# Processed by: cddbd v1.5.2PL0 Copyright (c) Steve Scherf et al.
# Submitted via: ExactAudioCopy v0.95a4
#
DISCID=810b3c0c
DTITLE=Shemekia Copeland - Never Going Back
DYEAR=2009
DGENRE=Blues
TTITLE0=Sounds Like the Devil
TTITLE1=Dirty Water
TTITLE2=Broken World
TTITLE3=Never Goin' Back to Memphis
TTITLE4=The Truth Is the Light
TTITLE5=Black Crow
TTITLE6=Born a Penny
TTITLE7=Limousine
TTITLE8=River's Invitation
TTITLE9=Rise Up
TTITLE10=Big Brand New Religion
TTITLE11=Circumstances
EXTD=YEAR: 2009
EXTT0=
EXTT1=
EXTT2=
EXTT3=
EXTT4=
EXTT5=
EXTT6=
EXTT7=
EXTT8=
EXTT9=
EXTT10=
EXTT11=
PLAYORDER=
